<svg width="312pt" height="672pt" viewBox="0.00 0.00 312.00 672.00" xmlns="http://www.w3.org/2000/svg" xmlns:xlink="http://www.w3.org/1999/xlink">
<g id="graph1" class="graph" transform="scale(1 1) rotate(0) translate(4 668)">
<title>chemical_syntax_tree</title>
<polygon fill="white" stroke="white" points="-4,5 -4,-668 309,-668 309,5 -4,5"></polygon>
<!-- expression_0 -->
<g id="node1" class="node"><title>expression_0</title>
<polygon fill="none" stroke="#fea100" stroke-width="2" points="86.6462,-556.8 86.6462,-663.2 217.354,-663.2 217.354,-556.8 86.6462,-556.8"></polygon>
<text text-anchor="middle" x="152" y="-646.6" font-family="Times,serif" font-size="14.00"><tspan style="font-weight:bold">Expression</tspan></text>
<polyline fill="none" stroke="#fea100" stroke-width="2" points="86.6462,-638.4 217.354,-638.4 "></polyline>
<text text-anchor="middle" x="152" y="-605.8" font-family="Times,serif" font-size="14.00">NH<tspan style="font-size:52%;baseline-shift:sub">3</tspan></text>
<polyline fill="none" stroke="#fea100" stroke-width="2" points="86.6462,-581.6 217.354,-581.6 "></polyline>
<text text-anchor="middle" x="152" y="-565" font-family="Times,serif" font-size="14.00"><tspan style="font-style:italic">terms</tspan></text>
</g>
<!-- term_0 -->
<g id="node3" class="node"><title>term_0</title>
<polygon fill="none" stroke="#49902a" stroke-width="2" points="92.8699,-363 92.8699,-519 211.13,-519 211.13,-363 92.8699,-363"></polygon>
<text text-anchor="middle" x="152" y="-502.4" font-family="Times,serif" font-size="14.00"><tspan style="font-weight:bold">Term</tspan></text>
<polyline fill="none" stroke="#49902a" stroke-width="2" points="92.8699,-494.2 211.13,-494.2 "></polyline>
<text text-anchor="middle" x="152" y="-461.6" font-family="Times,serif" font-size="14.00">NH<tspan style="font-size:52%;baseline-shift:sub">3</tspan></text>
<polyline fill="none" stroke="#49902a" stroke-width="2" points="92.8699,-437.4 211.13,-437.4 "></polyline>
<text text-anchor="middle" x="152" y="-420.8" font-family="Times,serif" font-size="14.00"><tspan style="font-style:italic">number</tspan>: 1</text>
<polyline fill="none" stroke="#49902a" stroke-width="2" points="92.8699,-412.6 211.13,-412.6 "></polyline>
<text text-anchor="middle" x="152" y="-396" font-family="Times,serif" font-size="14.00"><tspan style="font-style:italic">state</tspan>: none</text>
<polyline fill="none" stroke="#49902a" stroke-width="2" points="92.8699,-387.8 211.13,-387.8 "></polyline>
<text text-anchor="middle" x="152" y="-371.2" font-family="Times,serif" font-size="14.00"><tspan style="font-style:italic">molecule</tspan></text>
</g>
<!-- expression_0&#45;&gt;term_0 -->
<g id="edge2" class="edge"><title>expression_0:terms-&gt;term_0:n</title>
<path fill="none" stroke="black" d="M152,-556C152,-544 152,-538.75 152,-530.125"></path>
<polygon fill="black" stroke="black" points="155.5,-530 152,-520 148.5,-530 155.5,-530"></polygon>
</g>
<!-- molecule_1 -->
<g id="node5" class="node"><title>molecule_1</title>
<polygon fill="none" stroke="#944cbe" stroke-width="2" points="91.3152,-218.8 91.3152,-325.2 212.685,-325.2 212.685,-218.8 91.3152,-218.8"></polygon>
<text text-anchor="middle" x="152" y="-308.6" font-family="Times,serif" font-size="14.00"><tspan style="font-weight:bold">Molecule</tspan></text>
<polyline fill="none" stroke="#944cbe" stroke-width="2" points="91.3152,-300.4 212.685,-300.4 "></polyline>
<text text-anchor="middle" x="152" y="-267.8" font-family="Times,serif" font-size="14.00">NH<tspan style="font-size:52%;baseline-shift:sub">3</tspan></text>
<polyline fill="none" stroke="#944cbe" stroke-width="2" points="91.3152,-243.6 212.685,-243.6 "></polyline>
<text text-anchor="middle" x="152" y="-227" font-family="Times,serif" font-size="14.00"><tspan style="font-style:italic">groups</tspan></text>
</g>
<!-- term_0&#45;&gt;molecule_1 -->
<g id="edge4" class="edge"><title>term_0:s-&gt;molecule_1:n</title>
<path fill="none" stroke="black" d="M152,-362C152,-350 152,-344.75 152,-336.125"></path>
<polygon fill="black" stroke="black" points="155.5,-336 152,-326 148.5,-336 155.5,-336"></polygon>
</g>
<!-- group_0 -->
<g id="node7" class="node"><title>group_0</title>
<polygon fill="none" stroke="#4c7fbe" stroke-width="2" points="-0.9604,-0.6 -0.9604,-181.4 142.96,-181.4 142.96,-0.6 -0.9604,-0.6"></polygon>
<text text-anchor="middle" x="71" y="-164.8" font-family="Times,serif" font-size="14.00"><tspan style="font-weight:bold">Group</tspan></text>
<polyline fill="none" stroke="#4c7fbe" stroke-width="2" points="-0.9604,-156.6 142.96,-156.6 "></polyline>
<text text-anchor="middle" x="71" y="-124" font-family="Times,serif" font-size="14.00">N</text>
<polyline fill="none" stroke="#4c7fbe" stroke-width="2" points="-0.9604,-99.8 142.96,-99.8 "></polyline>
<text text-anchor="middle" x="71" y="-83.2" font-family="Times,serif" font-size="14.00"><tspan style="font-style:italic">number</tspan>: 1</text>
<polyline fill="none" stroke="#4c7fbe" stroke-width="2" points="-0.9604,-75 142.96,-75 "></polyline>
<text text-anchor="middle" x="71" y="-58.4" font-family="Times,serif" font-size="14.00"><tspan style="font-style:italic">element</tspan>: N</text>
<polyline fill="none" stroke="#4c7fbe" stroke-width="2" points="-0.9604,-50.2 142.96,-50.2 "></polyline>
<text text-anchor="middle" x="71" y="-33.6" font-family="Times,serif" font-size="14.00"><tspan style="font-style:italic">charge</tspan>: 0</text>
<polyline fill="none" stroke="#4c7fbe" stroke-width="2" points="-0.9604,-25.4 142.96,-25.4 "></polyline>
<text text-anchor="middle" x="71" y="-8.8" font-family="Times,serif" font-size="14.00"><tspan style="font-style:italic">molecule</tspan>: none</text>
</g>
<!-- molecule_1&#45;&gt;group_0 -->
<g id="edge6" class="edge"><title>molecule_1:s-&gt;group_0:n</title>
<path fill="none" stroke="black" d="M152,-218C152,-182.76 87.1849,-213.283 73.513,-191.915"></path>
<polygon fill="black" stroke="black" points="76.8496,-190.834 71,-182 70.0642,-192.553 76.8496,-190.834"></polygon>
</g>
<!-- group_1 -->
<g id="node9" class="node"><title>group_1</title>
<polygon fill="none" stroke="#4c7fbe" stroke-width="2" points="161.04,-0.6 161.04,-181.4 304.96,-181.4 304.96,-0.6 161.04,-0.6"></polygon>
<text text-anchor="middle" x="233" y="-164.8" font-family="Times,serif" font-size="14.00"><tspan style="font-weight:bold">Group</tspan></text>
<polyline fill="none" stroke="#4c7fbe" stroke-width="2" points="161.04,-156.6 304.96,-156.6 "></polyline>
<text text-anchor="middle" x="233" y="-124" font-family="Times,serif" font-size="14.00">H<tspan style="font-size:52%;baseline-shift:sub">3</tspan></text>
<polyline fill="none" stroke="#4c7fbe" stroke-width="2" points="161.04,-99.8 304.96,-99.8 "></polyline>
<text text-anchor="middle" x="233" y="-83.2" font-family="Times,serif" font-size="14.00"><tspan style="font-style:italic">number</tspan>: 3</text>
<polyline fill="none" stroke="#4c7fbe" stroke-width="2" points="161.04,-75 304.96,-75 "></polyline>
<text text-anchor="middle" x="233" y="-58.4" font-family="Times,serif" font-size="14.00"><tspan style="font-style:italic">element</tspan>: H</text>
<polyline fill="none" stroke="#4c7fbe" stroke-width="2" points="161.04,-50.2 304.96,-50.2 "></polyline>
<text text-anchor="middle" x="233" y="-33.6" font-family="Times,serif" font-size="14.00"><tspan style="font-style:italic">charge</tspan>: 0</text>
<polyline fill="none" stroke="#4c7fbe" stroke-width="2" points="161.04,-25.4 304.96,-25.4 "></polyline>
<text text-anchor="middle" x="233" y="-8.8" font-family="Times,serif" font-size="14.00"><tspan style="font-style:italic">molecule</tspan>: none</text>
</g>
<!-- molecule_1&#45;&gt;group_1 -->
<g id="edge8" class="edge"><title>molecule_1:s-&gt;group_1:n</title>
<path fill="none" stroke="black" d="M152,-218C152,-182.76 216.815,-213.283 230.487,-191.915"></path>
<polygon fill="black" stroke="black" points="233.936,-192.553 233,-182 227.15,-190.834 233.936,-192.553"></polygon>
</g>
</g>
</svg>